# xmcd
#
# Track frame offsets: 
#        150
#        11032
#        24126
#        38437
#        51264
#        60452
#        70702
#        81083
#        92336
#        104837
#        116215
#        126029
#        142384
#        153185
#
# Disc length: 2213 seconds
#
# Revision: 0
# Processed by: cddbd v1.5.2PL0 Copyright (c) Steve Scherf et al.
# Submitted via: ExactAudioCopyFreeDBPlugin 1.0
#
DISCID=b308a30e
DTITLE=diverse - Best Of Country CD2
DYEAR=1900
DGENRE=Country
TTITLE0=Johnny Cash - Cold Cold Heart
TTITLE1=Lynn Anderson - Rose Garden
TTITLE2=Freddy Fender - Wasted Days And Wasted Nights
TTITLE3=Faron Young - It's Four In The Morning
TTITLE4=Frankie Laine - Rawhide
TTITLE5=Loretta Lynn - Out Of My Heart And Back In My Bed
TTITLE6=Dave Dudley - Six Days On The Road
TTITLE7=Patsy Cline - Just Out Of Reach
TTITLE8=Sonny James - Running Bear
TTITLE9=James Darren - Help Me Make It Through The Night
TTITLE10=Ned Miller - From A Jack To A King
TTITLE11=Rex Allen - Memory Train
TTITLE12=Sammi Smith - The Letter
TTITLE13=Charlie Rich - The Most Beautiful Girl
EXTD=
EXTT0=
EXTT1=
EXTT2=
EXTT3=
EXTT4=
EXTT5=
EXTT6=
EXTT7=
EXTT8=
EXTT9=
EXTT10=
EXTT11=
EXTT12=
EXTT13=
PLAYORDER=
